<?xml version="1.0" standalone="no"?>
<!DOCTYPE svg PUBLIC "-//W3C//DTD SVG 1.1//EN" "http://www.w3.org/Graphics/SVG/1.1/DTD/svg11.dtd">
<svg width="56mm" height="56mm" viewBox="-28 -28 56 56" xmlns="http://www.w3.org/2000/svg" version="1.1">
<title>OpenSCAD Model</title>
<path d="
M 5.15298,27.0129 L 8.49796,26.1541 L 11.7089,24.8827 L 14.7352,23.219 L 17.5292,21.1891 L 20.0466,18.825
 L 22.248,16.1641 L 24.0984,13.2482 L 25.5688,10.1234 L 26.636,6.83896 L 27.2831,3.44666 L 27.5,-0
 L 27.2831,-3.44666 L 26.636,-6.83896 L 25.5688,-10.1234 L 24.0984,-13.2482 L 22.248,-16.1641 L 20.0466,-18.825
 L 17.5292,-21.1891 L 14.7352,-23.219 L 11.7089,-24.8827 L 8.49796,-26.1541 L 5.15298,-27.0129 L 1.72673,-27.4457
 L -1.72673,-27.4457 L -5.15298,-27.0129 L -8.49796,-26.1541 L -11.7089,-24.8827 L -14.7352,-23.219 L -17.5292,-21.1891
 L -20.0466,-18.825 L -22.248,-16.1641 L -24.0984,-13.2482 L -25.5688,-10.1234 L -26.636,-6.83896 L -27.2831,-3.44666
 L -27.5,-0 L -27.2831,3.44666 L -26.636,6.83896 L -25.5688,10.1234 L -24.0984,13.2482 L -22.248,16.1641
 L -20.0466,18.825 L -17.5292,21.1891 L -14.7352,23.219 L -11.7089,24.8827 L -8.49796,26.1541 L -5.15298,27.0129
 L -1.72673,27.4457 L 1.72673,27.4457 z
M -0.0941772,-21.003 L -0.281067,-21.0266 L -0.463516,-21.0734 L -0.638657,-21.1427 L -0.803726,-21.2335 L -0.956131,-21.3442
 L -1.09344,-21.4732 L -1.21352,-21.6183 L -1.31445,-21.7774 L -1.39465,-21.9478 L -1.45287,-22.127 L -1.48816,-22.312
 L -1.5,-22.5 L -1.48816,-22.688 L -1.45287,-22.873 L -1.39465,-23.0522 L -1.31445,-23.2226 L -1.21352,-23.3817
 L -1.09344,-23.5268 L -0.956131,-23.6558 L -0.803726,-23.7665 L -0.638657,-23.8572 L -0.463516,-23.9266 L -0.281067,-23.9734
 L -0.0941772,-23.997 L 0.0941772,-23.997 L 0.281067,-23.9734 L 0.463516,-23.9266 L 0.638657,-23.8572 L 0.803726,-23.7665
 L 0.956131,-23.6558 L 1.09344,-23.5268 L 1.21352,-23.3817 L 1.31445,-23.2226 L 1.39465,-23.0522 L 1.45287,-22.873
 L 1.48816,-22.688 L 1.5,-22.5 L 1.48816,-22.312 L 1.45287,-22.127 L 1.39465,-21.9478 L 1.31445,-21.7774
 L 1.21352,-21.6183 L 1.09344,-21.4732 L 0.956131,-21.3442 L 0.803726,-21.2335 L 0.638657,-21.1427 L 0.463516,-21.0734
 L 0.281067,-21.0266 L 0.0941772,-21.003 z
M -0.879059,13.9724 L -2.62334,13.752 L -4.32623,13.3148 L -5.96091,12.6676 L -7.50157,11.8206 L -8.92393,10.7872
 L -10.2056,9.58365 L -11.3262,8.22899 L -12.2683,6.74454 L -13.0169,5.15373 L -13.5602,3.48164 L -13.8896,1.75465
 L -14,-0 L -13.8896,-1.75465 L -13.5602,-3.48164 L -13.0169,-5.15373 L -12.2683,-6.74454 L -11.3262,-8.22899
 L -10.2056,-9.58365 L -8.92393,-10.7872 L -7.50157,-11.8206 L -5.96091,-12.6676 L -4.32623,-13.3148 L -2.62334,-13.752
 L -0.879059,-13.9724 L 0.879059,-13.9724 L 2.62334,-13.752 L 4.32623,-13.3148 L 5.96091,-12.6676 L 7.50157,-11.8206
 L 8.92393,-10.7872 L 10.2056,-9.58365 L 11.3262,-8.22899 L 12.2683,-6.74454 L 13.0169,-5.15373 L 13.5602,-3.48164
 L 13.8896,-1.75465 L 14,-0 L 13.8896,1.75465 L 13.5602,3.48164 L 13.0169,5.15373 L 12.2683,6.74454
 L 11.3262,8.22899 L 10.2056,9.58365 L 8.92393,10.7872 L 7.50157,11.8206 L 5.96091,12.6676 L 4.32623,13.3148
 L 2.62334,13.752 L 0.879059,13.9724 z
M 22.4058,1.49704 L 22.2189,1.47342 L 22.0365,1.42657 L 21.8613,1.35724 L 21.6963,1.26648 L 21.5439,1.15576
 L 21.4065,1.02681 L 21.2865,0.881668 L 21.1855,0.722626 L 21.1053,0.552185 L 21.0471,0.373032 L 21.0118,0.187988
 L 21,-0 L 21.0118,-0.187988 L 21.0471,-0.373032 L 21.1053,-0.552185 L 21.1855,-0.722626 L 21.2865,-0.881668
 L 21.4065,-1.02681 L 21.5439,-1.15576 L 21.6963,-1.26648 L 21.8613,-1.35724 L 22.0365,-1.42657 L 22.2189,-1.47342
 L 22.4058,-1.49704 L 22.5942,-1.49704 L 22.7811,-1.47342 L 22.9635,-1.42657 L 23.1387,-1.35724 L 23.3037,-1.26648
 L 23.4561,-1.15576 L 23.5934,-1.02681 L 23.7135,-0.881668 L 23.8145,-0.722626 L 23.8947,-0.552185 L 23.9529,-0.373032
 L 23.9882,-0.187988 L 24,-0 L 23.9882,0.187988 L 23.9529,0.373032 L 23.8947,0.552185 L 23.8145,0.722626
 L 23.7135,0.881668 L 23.5934,1.02681 L 23.4561,1.15576 L 23.3037,1.26648 L 23.1387,1.35724 L 22.9635,1.42657
 L 22.7811,1.47342 L 22.5942,1.49704 z
M -22.5942,1.49704 L -22.7811,1.47342 L -22.9635,1.42657 L -23.1387,1.35724 L -23.3037,1.26648 L -23.4561,1.15576
 L -23.5934,1.02681 L -23.7135,0.881668 L -23.8145,0.722626 L -23.8947,0.552185 L -23.9529,0.373032 L -23.9882,0.187988
 L -24,-0 L -23.9882,-0.187988 L -23.9529,-0.373032 L -23.8947,-0.552185 L -23.8145,-0.722626 L -23.7135,-0.881668
 L -23.5934,-1.02681 L -23.4561,-1.15576 L -23.3037,-1.26648 L -23.1387,-1.35724 L -22.9635,-1.42657 L -22.7811,-1.47342
 L -22.5942,-1.49704 L -22.4058,-1.49704 L -22.2189,-1.47342 L -22.0365,-1.42657 L -21.8613,-1.35724 L -21.6963,-1.26648
 L -21.5439,-1.15576 L -21.4065,-1.02681 L -21.2865,-0.881668 L -21.1855,-0.722626 L -21.1053,-0.552185 L -21.0471,-0.373032
 L -21.0118,-0.187988 L -21,-0 L -21.0118,0.187988 L -21.0471,0.373032 L -21.1053,0.552185 L -21.1855,0.722626
 L -21.2865,0.881668 L -21.4065,1.02681 L -21.5439,1.15576 L -21.6963,1.26648 L -21.8613,1.35724 L -22.0365,1.42657
 L -22.2189,1.47342 L -22.4058,1.49704 z
M -0.0941772,23.997 L -0.281067,23.9734 L -0.463516,23.9266 L -0.638657,23.8572 L -0.803726,23.7665 L -0.956131,23.6558
 L -1.09344,23.5268 L -1.21352,23.3817 L -1.31445,23.2226 L -1.39465,23.0522 L -1.45287,22.873 L -1.48816,22.688
 L -1.5,22.5 L -1.48816,22.312 L -1.45287,22.127 L -1.39465,21.9478 L -1.31445,21.7774 L -1.21352,21.6183
 L -1.09344,21.4732 L -0.956131,21.3442 L -0.803726,21.2335 L -0.638657,21.1427 L -0.463516,21.0734 L -0.281067,21.0266
 L -0.0941772,21.003 L 0.0941772,21.003 L 0.281067,21.0266 L 0.463516,21.0734 L 0.638657,21.1427 L 0.803726,21.2335
 L 0.956131,21.3442 L 1.09344,21.4732 L 1.21352,21.6183 L 1.31445,21.7774 L 1.39465,21.9478 L 1.45287,22.127
 L 1.48816,22.312 L 1.5,22.5 L 1.48816,22.688 L 1.45287,22.873 L 1.39465,23.0522 L 1.31445,23.2226
 L 1.21352,23.3817 L 1.09344,23.5268 L 0.956131,23.6558 L 0.803726,23.7665 L 0.638657,23.8572 L 0.463516,23.9266
 L 0.281067,23.9734 L 0.0941772,23.997 z
" stroke="black" fill="lightgray" stroke-width="0.5"/>
</svg>
