  0
SECTION
  2
BLOCKS
  0
ENDSEC
  0
SECTION
  2
ENTITIES
  0
LINE
  8
0
 10
5.15298
 20
-27.0129
 11
8.49796
 21
-26.1541
  0
LINE
  8
0
 10
8.49796
 20
-26.1541
 11
11.7089
 21
-24.8827
  0
LINE
  8
0
 10
11.7089
 20
-24.8827
 11
14.7352
 21
-23.219
  0
LINE
  8
0
 10
14.7352
 20
-23.219
 11
17.5292
 21
-21.1891
  0
LINE
  8
0
 10
17.5292
 20
-21.1891
 11
20.0466
 21
-18.825
  0
LINE
  8
0
 10
20.0466
 20
-18.825
 11
22.248
 21
-16.1641
  0
LINE
  8
0
 10
22.248
 20
-16.1641
 11
24.0984
 21
-13.2482
  0
LINE
  8
0
 10
24.0984
 20
-13.2482
 11
25.5688
 21
-10.1234
  0
LINE
  8
0
 10
25.5688
 20
-10.1234
 11
26.636
 21
-6.83896
  0
LINE
  8
0
 10
26.636
 20
-6.83896
 11
27.2831
 21
-3.44666
  0
LINE
  8
0
 10
27.2831
 20
-3.44666
 11
27.5
 21
0
  0
LINE
  8
0
 10
27.5
 20
0
 11
27.2831
 21
3.44666
  0
LINE
  8
0
 10
27.2831
 20
3.44666
 11
26.636
 21
6.83896
  0
LINE
  8
0
 10
26.636
 20
6.83896
 11
25.5688
 21
10.1234
  0
LINE
  8
0
 10
25.5688
 20
10.1234
 11
24.0984
 21
13.2482
  0
LINE
  8
0
 10
24.0984
 20
13.2482
 11
22.248
 21
16.1641
  0
LINE
  8
0
 10
22.248
 20
16.1641
 11
20.0466
 21
18.825
  0
LINE
  8
0
 10
20.0466
 20
18.825
 11
17.5292
 21
21.1891
  0
LINE
  8
0
 10
17.5292
 20
21.1891
 11
14.7352
 21
23.219
  0
LINE
  8
0
 10
14.7352
 20
23.219
 11
11.7089
 21
24.8827
  0
LINE
  8
0
 10
11.7089
 20
24.8827
 11
8.49796
 21
26.1541
  0
LINE
  8
0
 10
8.49796
 20
26.1541
 11
5.15298
 21
27.0129
  0
LINE
  8
0
 10
5.15298
 20
27.0129
 11
1.72673
 21
27.4457
  0
LINE
  8
0
 10
1.72673
 20
27.4457
 11
-1.72673
 21
27.4457
  0
LINE
  8
0
 10
-1.72673
 20
27.4457
 11
-5.15298
 21
27.0129
  0
LINE
  8
0
 10
-5.15298
 20
27.0129
 11
-8.49796
 21
26.1541
  0
LINE
  8
0
 10
-8.49796
 20
26.1541
 11
-11.7089
 21
24.8827
  0
LINE
  8
0
 10
-11.7089
 20
24.8827
 11
-14.7352
 21
23.219
  0
LINE
  8
0
 10
-14.7352
 20
23.219
 11
-17.5292
 21
21.1891
  0
LINE
  8
0
 10
-17.5292
 20
21.1891
 11
-20.0466
 21
18.825
  0
LINE
  8
0
 10
-20.0466
 20
18.825
 11
-22.248
 21
16.1641
  0
LINE
  8
0
 10
-22.248
 20
16.1641
 11
-24.0984
 21
13.2482
  0
LINE
  8
0
 10
-24.0984
 20
13.2482
 11
-25.5688
 21
10.1234
  0
LINE
  8
0
 10
-25.5688
 20
10.1234
 11
-26.636
 21
6.83896
  0
LINE
  8
0
 10
-26.636
 20
6.83896
 11
-27.2831
 21
3.44666
  0
LINE
  8
0
 10
-27.2831
 20
3.44666
 11
-27.5
 21
0
  0
LINE
  8
0
 10
-27.5
 20
0
 11
-27.2831
 21
-3.44666
  0
LINE
  8
0
 10
-27.2831
 20
-3.44666
 11
-26.636
 21
-6.83896
  0
LINE
  8
0
 10
-26.636
 20
-6.83896
 11
-25.5688
 21
-10.1234
  0
LINE
  8
0
 10
-25.5688
 20
-10.1234
 11
-24.0984
 21
-13.2482
  0
LINE
  8
0
 10
-24.0984
 20
-13.2482
 11
-22.248
 21
-16.1641
  0
LINE
  8
0
 10
-22.248
 20
-16.1641
 11
-20.0466
 21
-18.825
  0
LINE
  8
0
 10
-20.0466
 20
-18.825
 11
-17.5292
 21
-21.1891
  0
LINE
  8
0
 10
-17.5292
 20
-21.1891
 11
-14.7352
 21
-23.219
  0
LINE
  8
0
 10
-14.7352
 20
-23.219
 11
-11.7089
 21
-24.8827
  0
LINE
  8
0
 10
-11.7089
 20
-24.8827
 11
-8.49796
 21
-26.1541
  0
LINE
  8
0
 10
-8.49796
 20
-26.1541
 11
-5.15298
 21
-27.0129
  0
LINE
  8
0
 10
-5.15298
 20
-27.0129
 11
-1.72673
 21
-27.4457
  0
LINE
  8
0
 10
-1.72673
 20
-27.4457
 11
1.72673
 21
-27.4457
  0
LINE
  8
0
 10
1.72673
 20
-27.4457
 11
5.15298
 21
-27.0129
  0
LINE
  8
0
 10
-0.0941772
 20
21.003
 11
-0.281067
 21
21.0266
  0
LINE
  8
0
 10
-0.281067
 20
21.0266
 11
-0.463516
 21
21.0734
  0
LINE
  8
0
 10
-0.463516
 20
21.0734
 11
-0.638657
 21
21.1427
  0
LINE
  8
0
 10
-0.638657
 20
21.1427
 11
-0.803726
 21
21.2335
  0
LINE
  8
0
 10
-0.803726
 20
21.2335
 11
-0.956131
 21
21.3442
  0
LINE
  8
0
 10
-0.956131
 20
21.3442
 11
-1.09344
 21
21.4732
  0
LINE
  8
0
 10
-1.09344
 20
21.4732
 11
-1.21352
 21
21.6183
  0
LINE
  8
0
 10
-1.21352
 20
21.6183
 11
-1.31445
 21
21.7774
  0
LINE
  8
0
 10
-1.31445
 20
21.7774
 11
-1.39465
 21
21.9478
  0
LINE
  8
0
 10
-1.39465
 20
21.9478
 11
-1.45287
 21
22.127
  0
LINE
  8
0
 10
-1.45287
 20
22.127
 11
-1.48816
 21
22.312
  0
LINE
  8
0
 10
-1.48816
 20
22.312
 11
-1.5
 21
22.5
  0
LINE
  8
0
 10
-1.5
 20
22.5
 11
-1.48816
 21
22.688
  0
LINE
  8
0
 10
-1.48816
 20
22.688
 11
-1.45287
 21
22.873
  0
LINE
  8
0
 10
-1.45287
 20
22.873
 11
-1.39465
 21
23.0522
  0
LINE
  8
0
 10
-1.39465
 20
23.0522
 11
-1.31445
 21
23.2226
  0
LINE
  8
0
 10
-1.31445
 20
23.2226
 11
-1.21352
 21
23.3817
  0
LINE
  8
0
 10
-1.21352
 20
23.3817
 11
-1.09344
 21
23.5268
  0
LINE
  8
0
 10
-1.09344
 20
23.5268
 11
-0.956131
 21
23.6558
  0
LINE
  8
0
 10
-0.956131
 20
23.6558
 11
-0.803726
 21
23.7665
  0
LINE
  8
0
 10
-0.803726
 20
23.7665
 11
-0.638657
 21
23.8572
  0
LINE
  8
0
 10
-0.638657
 20
23.8572
 11
-0.463516
 21
23.9266
  0
LINE
  8
0
 10
-0.463516
 20
23.9266
 11
-0.281067
 21
23.9734
  0
LINE
  8
0
 10
-0.281067
 20
23.9734
 11
-0.0941772
 21
23.997
  0
LINE
  8
0
 10
-0.0941772
 20
23.997
 11
0.0941772
 21
23.997
  0
LINE
  8
0
 10
0.0941772
 20
23.997
 11
0.281067
 21
23.9734
  0
LINE
  8
0
 10
0.281067
 20
23.9734
 11
0.463516
 21
23.9266
  0
LINE
  8
0
 10
0.463516
 20
23.9266
 11
0.638657
 21
23.8572
  0
LINE
  8
0
 10
0.638657
 20
23.8572
 11
0.803726
 21
23.7665
  0
LINE
  8
0
 10
0.803726
 20
23.7665
 11
0.956131
 21
23.6558
  0
LINE
  8
0
 10
0.956131
 20
23.6558
 11
1.09344
 21
23.5268
  0
LINE
  8
0
 10
1.09344
 20
23.5268
 11
1.21352
 21
23.3817
  0
LINE
  8
0
 10
1.21352
 20
23.3817
 11
1.31445
 21
23.2226
  0
LINE
  8
0
 10
1.31445
 20
23.2226
 11
1.39465
 21
23.0522
  0
LINE
  8
0
 10
1.39465
 20
23.0522
 11
1.45287
 21
22.873
  0
LINE
  8
0
 10
1.45287
 20
22.873
 11
1.48816
 21
22.688
  0
LINE
  8
0
 10
1.48816
 20
22.688
 11
1.5
 21
22.5
  0
LINE
  8
0
 10
1.5
 20
22.5
 11
1.48816
 21
22.312
  0
LINE
  8
0
 10
1.48816
 20
22.312
 11
1.45287
 21
22.127
  0
LINE
  8
0
 10
1.45287
 20
22.127
 11
1.39465
 21
21.9478
  0
LINE
  8
0
 10
1.39465
 20
21.9478
 11
1.31445
 21
21.7774
  0
LINE
  8
0
 10
1.31445
 20
21.7774
 11
1.21352
 21
21.6183
  0
LINE
  8
0
 10
1.21352
 20
21.6183
 11
1.09344
 21
21.4732
  0
LINE
  8
0
 10
1.09344
 20
21.4732
 11
0.956131
 21
21.3442
  0
LINE
  8
0
 10
0.956131
 20
21.3442
 11
0.803726
 21
21.2335
  0
LINE
  8
0
 10
0.803726
 20
21.2335
 11
0.638657
 21
21.1427
  0
LINE
  8
0
 10
0.638657
 20
21.1427
 11
0.463516
 21
21.0734
  0
LINE
  8
0
 10
0.463516
 20
21.0734
 11
0.281067
 21
21.0266
  0
LINE
  8
0
 10
0.281067
 20
21.0266
 11
0.0941772
 21
21.003
  0
LINE
  8
0
 10
0.0941772
 20
21.003
 11
-0.0941772
 21
21.003
  0
LINE
  8
0
 10
-0.879059
 20
-13.9724
 11
-2.62334
 21
-13.752
  0
LINE
  8
0
 10
-2.62334
 20
-13.752
 11
-4.32623
 21
-13.3148
  0
LINE
  8
0
 10
-4.32623
 20
-13.3148
 11
-5.96091
 21
-12.6676
  0
LINE
  8
0
 10
-5.96091
 20
-12.6676
 11
-7.50157
 21
-11.8206
  0
LINE
  8
0
 10
-7.50157
 20
-11.8206
 11
-8.92393
 21
-10.7872
  0
LINE
  8
0
 10
-8.92393
 20
-10.7872
 11
-10.2056
 21
-9.58365
  0
LINE
  8
0
 10
-10.2056
 20
-9.58365
 11
-11.3262
 21
-8.22899
  0
LINE
  8
0
 10
-11.3262
 20
-8.22899
 11
-12.2683
 21
-6.74454
  0
LINE
  8
0
 10
-12.2683
 20
-6.74454
 11
-13.0169
 21
-5.15373
  0
LINE
  8
0
 10
-13.0169
 20
-5.15373
 11
-13.5602
 21
-3.48164
  0
LINE
  8
0
 10
-13.5602
 20
-3.48164
 11
-13.8896
 21
-1.75465
  0
LINE
  8
0
 10
-13.8896
 20
-1.75465
 11
-14
 21
0
  0
LINE
  8
0
 10
-14
 20
0
 11
-13.8896
 21
1.75465
  0
LINE
  8
0
 10
-13.8896
 20
1.75465
 11
-13.5602
 21
3.48164
  0
LINE
  8
0
 10
-13.5602
 20
3.48164
 11
-13.0169
 21
5.15373
  0
LINE
  8
0
 10
-13.0169
 20
5.15373
 11
-12.2683
 21
6.74454
  0
LINE
  8
0
 10
-12.2683
 20
6.74454
 11
-11.3262
 21
8.22899
  0
LINE
  8
0
 10
-11.3262
 20
8.22899
 11
-10.2056
 21
9.58365
  0
LINE
  8
0
 10
-10.2056
 20
9.58365
 11
-8.92393
 21
10.7872
  0
LINE
  8
0
 10
-8.92393
 20
10.7872
 11
-7.50157
 21
11.8206
  0
LINE
  8
0
 10
-7.50157
 20
11.8206
 11
-5.96091
 21
12.6676
  0
LINE
  8
0
 10
-5.96091
 20
12.6676
 11
-4.32623
 21
13.3148
  0
LINE
  8
0
 10
-4.32623
 20
13.3148
 11
-2.62334
 21
13.752
  0
LINE
  8
0
 10
-2.62334
 20
13.752
 11
-0.879059
 21
13.9724
  0
LINE
  8
0
 10
-0.879059
 20
13.9724
 11
0.879059
 21
13.9724
  0
LINE
  8
0
 10
0.879059
 20
13.9724
 11
2.62334
 21
13.752
  0
LINE
  8
0
 10
2.62334
 20
13.752
 11
4.32623
 21
13.3148
  0
LINE
  8
0
 10
4.32623
 20
13.3148
 11
5.96091
 21
12.6676
  0
LINE
  8
0
 10
5.96091
 20
12.6676
 11
7.50157
 21
11.8206
  0
LINE
  8
0
 10
7.50157
 20
11.8206
 11
8.92393
 21
10.7872
  0
LINE
  8
0
 10
8.92393
 20
10.7872
 11
10.2056
 21
9.58365
  0
LINE
  8
0
 10
10.2056
 20
9.58365
 11
11.3262
 21
8.22899
  0
LINE
  8
0
 10
11.3262
 20
8.22899
 11
12.2683
 21
6.74454
  0
LINE
  8
0
 10
12.2683
 20
6.74454
 11
13.0169
 21
5.15373
  0
LINE
  8
0
 10
13.0169
 20
5.15373
 11
13.5602
 21
3.48164
  0
LINE
  8
0
 10
13.5602
 20
3.48164
 11
13.8896
 21
1.75465
  0
LINE
  8
0
 10
13.8896
 20
1.75465
 11
14
 21
0
  0
LINE
  8
0
 10
14
 20
0
 11
13.8896
 21
-1.75465
  0
LINE
  8
0
 10
13.8896
 20
-1.75465
 11
13.5602
 21
-3.48164
  0
LINE
  8
0
 10
13.5602
 20
-3.48164
 11
13.0169
 21
-5.15373
  0
LINE
  8
0
 10
13.0169
 20
-5.15373
 11
12.2683
 21
-6.74454
  0
LINE
  8
0
 10
12.2683
 20
-6.74454
 11
11.3262
 21
-8.22899
  0
LINE
  8
0
 10
11.3262
 20
-8.22899
 11
10.2056
 21
-9.58365
  0
LINE
  8
0
 10
10.2056
 20
-9.58365
 11
8.92393
 21
-10.7872
  0
LINE
  8
0
 10
8.92393
 20
-10.7872
 11
7.50157
 21
-11.8206
  0
LINE
  8
0
 10
7.50157
 20
-11.8206
 11
5.96091
 21
-12.6676
  0
LINE
  8
0
 10
5.96091
 20
-12.6676
 11
4.32623
 21
-13.3148
  0
LINE
  8
0
 10
4.32623
 20
-13.3148
 11
2.62334
 21
-13.752
  0
LINE
  8
0
 10
2.62334
 20
-13.752
 11
0.879059
 21
-13.9724
  0
LINE
  8
0
 10
0.879059
 20
-13.9724
 11
-0.879059
 21
-13.9724
  0
LINE
  8
0
 10
22.4058
 20
-1.49704
 11
22.2189
 21
-1.47342
  0
LINE
  8
0
 10
22.2189
 20
-1.47342
 11
22.0365
 21
-1.42657
  0
LINE
  8
0
 10
22.0365
 20
-1.42657
 11
21.8613
 21
-1.35724
  0
LINE
  8
0
 10
21.8613
 20
-1.35724
 11
21.6963
 21
-1.26648
  0
LINE
  8
0
 10
21.6963
 20
-1.26648
 11
21.5439
 21
-1.15576
  0
LINE
  8
0
 10
21.5439
 20
-1.15576
 11
21.4065
 21
-1.02681
  0
LINE
  8
0
 10
21.4065
 20
-1.02681
 11
21.2865
 21
-0.881668
  0
LINE
  8
0
 10
21.2865
 20
-0.881668
 11
21.1855
 21
-0.722626
  0
LINE
  8
0
 10
21.1855
 20
-0.722626
 11
21.1053
 21
-0.552185
  0
LINE
  8
0
 10
21.1053
 20
-0.552185
 11
21.0471
 21
-0.373032
  0
LINE
  8
0
 10
21.0471
 20
-0.373032
 11
21.0118
 21
-0.187988
  0
LINE
  8
0
 10
21.0118
 20
-0.187988
 11
21
 21
0
  0
LINE
  8
0
 10
21
 20
0
 11
21.0118
 21
0.187988
  0
LINE
  8
0
 10
21.0118
 20
0.187988
 11
21.0471
 21
0.373032
  0
LINE
  8
0
 10
21.0471
 20
0.373032
 11
21.1053
 21
0.552185
  0
LINE
  8
0
 10
21.1053
 20
0.552185
 11
21.1855
 21
0.722626
  0
LINE
  8
0
 10
21.1855
 20
0.722626
 11
21.2865
 21
0.881668
  0
LINE
  8
0
 10
21.2865
 20
0.881668
 11
21.4065
 21
1.02681
  0
LINE
  8
0
 10
21.4065
 20
1.02681
 11
21.5439
 21
1.15576
  0
LINE
  8
0
 10
21.5439
 20
1.15576
 11
21.6963
 21
1.26648
  0
LINE
  8
0
 10
21.6963
 20
1.26648
 11
21.8613
 21
1.35724
  0
LINE
  8
0
 10
21.8613
 20
1.35724
 11
22.0365
 21
1.42657
  0
LINE
  8
0
 10
22.0365
 20
1.42657
 11
22.2189
 21
1.47342
  0
LINE
  8
0
 10
22.2189
 20
1.47342
 11
22.4058
 21
1.49704
  0
LINE
  8
0
 10
22.4058
 20
1.49704
 11
22.5942
 21
1.49704
  0
LINE
  8
0
 10
22.5942
 20
1.49704
 11
22.7811
 21
1.47342
  0
LINE
  8
0
 10
22.7811
 20
1.47342
 11
22.9635
 21
1.42657
  0
LINE
  8
0
 10
22.9635
 20
1.42657
 11
23.1387
 21
1.35724
  0
LINE
  8
0
 10
23.1387
 20
1.35724
 11
23.3037
 21
1.26648
  0
LINE
  8
0
 10
23.3037
 20
1.26648
 11
23.4561
 21
1.15576
  0
LINE
  8
0
 10
23.4561
 20
1.15576
 11
23.5934
 21
1.02681
  0
LINE
  8
0
 10
23.5934
 20
1.02681
 11
23.7135
 21
0.881668
  0
LINE
  8
0
 10
23.7135
 20
0.881668
 11
23.8145
 21
0.722626
  0
LINE
  8
0
 10
23.8145
 20
0.722626
 11
23.8947
 21
0.552185
  0
LINE
  8
0
 10
23.8947
 20
0.552185
 11
23.9529
 21
0.373032
  0
LINE
  8
0
 10
23.9529
 20
0.373032
 11
23.9882
 21
0.187988
  0
LINE
  8
0
 10
23.9882
 20
0.187988
 11
24
 21
0
  0
LINE
  8
0
 10
24
 20
0
 11
23.9882
 21
-0.187988
  0
LINE
  8
0
 10
23.9882
 20
-0.187988
 11
23.9529
 21
-0.373032
  0
LINE
  8
0
 10
23.9529
 20
-0.373032
 11
23.8947
 21
-0.552185
  0
LINE
  8
0
 10
23.8947
 20
-0.552185
 11
23.8145
 21
-0.722626
  0
LINE
  8
0
 10
23.8145
 20
-0.722626
 11
23.7135
 21
-0.881668
  0
LINE
  8
0
 10
23.7135
 20
-0.881668
 11
23.5934
 21
-1.02681
  0
LINE
  8
0
 10
23.5934
 20
-1.02681
 11
23.4561
 21
-1.15576
  0
LINE
  8
0
 10
23.4561
 20
-1.15576
 11
23.3037
 21
-1.26648
  0
LINE
  8
0
 10
23.3037
 20
-1.26648
 11
23.1387
 21
-1.35724
  0
LINE
  8
0
 10
23.1387
 20
-1.35724
 11
22.9635
 21
-1.42657
  0
LINE
  8
0
 10
22.9635
 20
-1.42657
 11
22.7811
 21
-1.47342
  0
LINE
  8
0
 10
22.7811
 20
-1.47342
 11
22.5942
 21
-1.49704
  0
LINE
  8
0
 10
22.5942
 20
-1.49704
 11
22.4058
 21
-1.49704
  0
LINE
  8
0
 10
-22.5942
 20
-1.49704
 11
-22.7811
 21
-1.47342
  0
LINE
  8
0
 10
-22.7811
 20
-1.47342
 11
-22.9635
 21
-1.42657
  0
LINE
  8
0
 10
-22.9635
 20
-1.42657
 11
-23.1387
 21
-1.35724
  0
LINE
  8
0
 10
-23.1387
 20
-1.35724
 11
-23.3037
 21
-1.26648
  0
LINE
  8
0
 10
-23.3037
 20
-1.26648
 11
-23.4561
 21
-1.15576
  0
LINE
  8
0
 10
-23.4561
 20
-1.15576
 11
-23.5934
 21
-1.02681
  0
LINE
  8
0
 10
-23.5934
 20
-1.02681
 11
-23.7135
 21
-0.881668
  0
LINE
  8
0
 10
-23.7135
 20
-0.881668
 11
-23.8145
 21
-0.722626
  0
LINE
  8
0
 10
-23.8145
 20
-0.722626
 11
-23.8947
 21
-0.552185
  0
LINE
  8
0
 10
-23.8947
 20
-0.552185
 11
-23.9529
 21
-0.373032
  0
LINE
  8
0
 10
-23.9529
 20
-0.373032
 11
-23.9882
 21
-0.187988
  0
LINE
  8
0
 10
-23.9882
 20
-0.187988
 11
-24
 21
0
  0
LINE
  8
0
 10
-24
 20
0
 11
-23.9882
 21
0.187988
  0
LINE
  8
0
 10
-23.9882
 20
0.187988
 11
-23.9529
 21
0.373032
  0
LINE
  8
0
 10
-23.9529
 20
0.373032
 11
-23.8947
 21
0.552185
  0
LINE
  8
0
 10
-23.8947
 20
0.552185
 11
-23.8145
 21
0.722626
  0
LINE
  8
0
 10
-23.8145
 20
0.722626
 11
-23.7135
 21
0.881668
  0
LINE
  8
0
 10
-23.7135
 20
0.881668
 11
-23.5934
 21
1.02681
  0
LINE
  8
0
 10
-23.5934
 20
1.02681
 11
-23.4561
 21
1.15576
  0
LINE
  8
0
 10
-23.4561
 20
1.15576
 11
-23.3037
 21
1.26648
  0
LINE
  8
0
 10
-23.3037
 20
1.26648
 11
-23.1387
 21
1.35724
  0
LINE
  8
0
 10
-23.1387
 20
1.35724
 11
-22.9635
 21
1.42657
  0
LINE
  8
0
 10
-22.9635
 20
1.42657
 11
-22.7811
 21
1.47342
  0
LINE
  8
0
 10
-22.7811
 20
1.47342
 11
-22.5942
 21
1.49704
  0
LINE
  8
0
 10
-22.5942
 20
1.49704
 11
-22.4058
 21
1.49704
  0
LINE
  8
0
 10
-22.4058
 20
1.49704
 11
-22.2189
 21
1.47342
  0
LINE
  8
0
 10
-22.2189
 20
1.47342
 11
-22.0365
 21
1.42657
  0
LINE
  8
0
 10
-22.0365
 20
1.42657
 11
-21.8613
 21
1.35724
  0
LINE
  8
0
 10
-21.8613
 20
1.35724
 11
-21.6963
 21
1.26648
  0
LINE
  8
0
 10
-21.6963
 20
1.26648
 11
-21.5439
 21
1.15576
  0
LINE
  8
0
 10
-21.5439
 20
1.15576
 11
-21.4065
 21
1.02681
  0
LINE
  8
0
 10
-21.4065
 20
1.02681
 11
-21.2865
 21
0.881668
  0
LINE
  8
0
 10
-21.2865
 20
0.881668
 11
-21.1855
 21
0.722626
  0
LINE
  8
0
 10
-21.1855
 20
0.722626
 11
-21.1053
 21
0.552185
  0
LINE
  8
0
 10
-21.1053
 20
0.552185
 11
-21.0471
 21
0.373032
  0
LINE
  8
0
 10
-21.0471
 20
0.373032
 11
-21.0118
 21
0.187988
  0
LINE
  8
0
 10
-21.0118
 20
0.187988
 11
-21
 21
0
  0
LINE
  8
0
 10
-21
 20
0
 11
-21.0118
 21
-0.187988
  0
LINE
  8
0
 10
-21.0118
 20
-0.187988
 11
-21.0471
 21
-0.373032
  0
LINE
  8
0
 10
-21.0471
 20
-0.373032
 11
-21.1053
 21
-0.552185
  0
LINE
  8
0
 10
-21.1053
 20
-0.552185
 11
-21.1855
 21
-0.722626
  0
LINE
  8
0
 10
-21.1855
 20
-0.722626
 11
-21.2865
 21
-0.881668
  0
LINE
  8
0
 10
-21.2865
 20
-0.881668
 11
-21.4065
 21
-1.02681
  0
LINE
  8
0
 10
-21.4065
 20
-1.02681
 11
-21.5439
 21
-1.15576
  0
LINE
  8
0
 10
-21.5439
 20
-1.15576
 11
-21.6963
 21
-1.26648
  0
LINE
  8
0
 10
-21.6963
 20
-1.26648
 11
-21.8613
 21
-1.35724
  0
LINE
  8
0
 10
-21.8613
 20
-1.35724
 11
-22.0365
 21
-1.42657
  0
LINE
  8
0
 10
-22.0365
 20
-1.42657
 11
-22.2189
 21
-1.47342
  0
LINE
  8
0
 10
-22.2189
 20
-1.47342
 11
-22.4058
 21
-1.49704
  0
LINE
  8
0
 10
-22.4058
 20
-1.49704
 11
-22.5942
 21
-1.49704
  0
LINE
  8
0
 10
-0.0941772
 20
-23.997
 11
-0.281067
 21
-23.9734
  0
LINE
  8
0
 10
-0.281067
 20
-23.9734
 11
-0.463516
 21
-23.9266
  0
LINE
  8
0
 10
-0.463516
 20
-23.9266
 11
-0.638657
 21
-23.8572
  0
LINE
  8
0
 10
-0.638657
 20
-23.8572
 11
-0.803726
 21
-23.7665
  0
LINE
  8
0
 10
-0.803726
 20
-23.7665
 11
-0.956131
 21
-23.6558
  0
LINE
  8
0
 10
-0.956131
 20
-23.6558
 11
-1.09344
 21
-23.5268
  0
LINE
  8
0
 10
-1.09344
 20
-23.5268
 11
-1.21352
 21
-23.3817
  0
LINE
  8
0
 10
-1.21352
 20
-23.3817
 11
-1.31445
 21
-23.2226
  0
LINE
  8
0
 10
-1.31445
 20
-23.2226
 11
-1.39465
 21
-23.0522
  0
LINE
  8
0
 10
-1.39465
 20
-23.0522
 11
-1.45287
 21
-22.873
  0
LINE
  8
0
 10
-1.45287
 20
-22.873
 11
-1.48816
 21
-22.688
  0
LINE
  8
0
 10
-1.48816
 20
-22.688
 11
-1.5
 21
-22.5
  0
LINE
  8
0
 10
-1.5
 20
-22.5
 11
-1.48816
 21
-22.312
  0
LINE
  8
0
 10
-1.48816
 20
-22.312
 11
-1.45287
 21
-22.127
  0
LINE
  8
0
 10
-1.45287
 20
-22.127
 11
-1.39465
 21
-21.9478
  0
LINE
  8
0
 10
-1.39465
 20
-21.9478
 11
-1.31445
 21
-21.7774
  0
LINE
  8
0
 10
-1.31445
 20
-21.7774
 11
-1.21352
 21
-21.6183
  0
LINE
  8
0
 10
-1.21352
 20
-21.6183
 11
-1.09344
 21
-21.4732
  0
LINE
  8
0
 10
-1.09344
 20
-21.4732
 11
-0.956131
 21
-21.3442
  0
LINE
  8
0
 10
-0.956131
 20
-21.3442
 11
-0.803726
 21
-21.2335
  0
LINE
  8
0
 10
-0.803726
 20
-21.2335
 11
-0.638657
 21
-21.1427
  0
LINE
  8
0
 10
-0.638657
 20
-21.1427
 11
-0.463516
 21
-21.0734
  0
LINE
  8
0
 10
-0.463516
 20
-21.0734
 11
-0.281067
 21
-21.0266
  0
LINE
  8
0
 10
-0.281067
 20
-21.0266
 11
-0.0941772
 21
-21.003
  0
LINE
  8
0
 10
-0.0941772
 20
-21.003
 11
0.0941772
 21
-21.003
  0
LINE
  8
0
 10
0.0941772
 20
-21.003
 11
0.281067
 21
-21.0266
  0
LINE
  8
0
 10
0.281067
 20
-21.0266
 11
0.463516
 21
-21.0734
  0
LINE
  8
0
 10
0.463516
 20
-21.0734
 11
0.638657
 21
-21.1427
  0
LINE
  8
0
 10
0.638657
 20
-21.1427
 11
0.803726
 21
-21.2335
  0
LINE
  8
0
 10
0.803726
 20
-21.2335
 11
0.956131
 21
-21.3442
  0
LINE
  8
0
 10
0.956131
 20
-21.3442
 11
1.09344
 21
-21.4732
  0
LINE
  8
0
 10
1.09344
 20
-21.4732
 11
1.21352
 21
-21.6183
  0
LINE
  8
0
 10
1.21352
 20
-21.6183
 11
1.31445
 21
-21.7774
  0
LINE
  8
0
 10
1.31445
 20
-21.7774
 11
1.39465
 21
-21.9478
  0
LINE
  8
0
 10
1.39465
 20
-21.9478
 11
1.45287
 21
-22.127
  0
LINE
  8
0
 10
1.45287
 20
-22.127
 11
1.48816
 21
-22.312
  0
LINE
  8
0
 10
1.48816
 20
-22.312
 11
1.5
 21
-22.5
  0
LINE
  8
0
 10
1.5
 20
-22.5
 11
1.48816
 21
-22.688
  0
LINE
  8
0
 10
1.48816
 20
-22.688
 11
1.45287
 21
-22.873
  0
LINE
  8
0
 10
1.45287
 20
-22.873
 11
1.39465
 21
-23.0522
  0
LINE
  8
0
 10
1.39465
 20
-23.0522
 11
1.31445
 21
-23.2226
  0
LINE
  8
0
 10
1.31445
 20
-23.2226
 11
1.21352
 21
-23.3817
  0
LINE
  8
0
 10
1.21352
 20
-23.3817
 11
1.09344
 21
-23.5268
  0
LINE
  8
0
 10
1.09344
 20
-23.5268
 11
0.956131
 21
-23.6558
  0
LINE
  8
0
 10
0.956131
 20
-23.6558
 11
0.803726
 21
-23.7665
  0
LINE
  8
0
 10
0.803726
 20
-23.7665
 11
0.638657
 21
-23.8572
  0
LINE
  8
0
 10
0.638657
 20
-23.8572
 11
0.463516
 21
-23.9266
  0
LINE
  8
0
 10
0.463516
 20
-23.9266
 11
0.281067
 21
-23.9734
  0
LINE
  8
0
 10
0.281067
 20
-23.9734
 11
0.0941772
 21
-23.997
  0
LINE
  8
0
 10
0.0941772
 20
-23.997
 11
-0.0941772
 21
-23.997
  0
ENDSEC
  0
SECTION
  2
OBJECTS
  0
DICTIONARY
  0
ENDSEC
  0
EOF
